<?xml version="1.0" encoding="utf-8"?>
<!-- Generator: Adobe Illustrator 18.1.1, SVG Export Plug-In . SVG Version: 6.00 Build 0)  -->
<!DOCTYPE svg PUBLIC "-//W3C//DTD SVG 1.1//EN" "http://www.w3.org/Graphics/SVG/1.1/DTD/svg11.dtd">
<svg version="1.1" id="Layer_1" xmlns="http://www.w3.org/2000/svg" xmlns:xlink="http://www.w3.org/1999/xlink" x="0px" y="0px"
	 width="1024px" height="768px" viewBox="0 0 1024 768" enable-background="new 0 0 1024 768" xml:space="preserve">
<g>
	<path fill="#71DD3E" d="M512,56.5c180.3,0,327.5,146.1,327.5,327.5S693.3,711.5,512,711.5S184.5,565.3,184.5,384
		S331.7,56.5,512,56.5 M512,0C299.7,0,128,171.7,128,384s171.7,384,384,384s384-171.7,384-384S724.3,0,512,0L512,0z"/>
	<g>
		<path fill="#71DD3E" d="M564.3,387.2c29.9-18.1,50.1-50.1,50.1-86.4c0-56.5-45.9-101.3-101.3-101.3s-101.3,45.9-101.3,101.3
			c0,37.3,20.3,69.3,50.1,86.4c-62.9,24.5-107.7,90.7-107.7,168.5v11.7h318.9v-11.7C672,477.9,627.2,411.7,564.3,387.2z
			 M435.2,300.8c0-42.7,35.2-76.8,77.9-76.8s76.8,34.1,76.8,76.8s-34.1,76.8-76.8,76.8S435.2,343.5,435.2,300.8z M377.6,544
			c5.3-78.9,64-141.9,135.5-141.9S643.2,465.1,648.5,544H377.6z"/>
	</g>
</g>
</svg>
